<svg width="20" height="20" viewBox="0 0 20 20" fill="none" xmlns="http://www.w3.org/2000/svg">
<path d="M10 2.84165C9.75642 2.8408 9.51668 2.9024 9.30368 3.02057C9.09068 3.13874 8.91153 3.30954 8.78333 3.51665L1.44167 15.2667C1.31684 15.4636 1.25038 15.6918 1.25 15.925C1.24999 16.0884 1.28243 16.2501 1.34545 16.4008C1.40847 16.5516 1.50081 16.6883 1.61711 16.803C1.7334 16.9178 1.87134 17.0083 2.0229 17.0693C2.17447 17.1303 2.33664 17.1605 2.5 17.1583H17.5C17.8271 17.1583 18.1408 17.0284 18.3721 16.7971C18.6034 16.5658 18.7333 16.2521 18.7333 15.925C18.733 15.6918 18.6665 15.4636 18.5417 15.2667L11.2167 3.51665C11.0885 3.30954 10.9093 3.13874 10.6963 3.02057C10.4833 2.9024 10.2436 2.8408 10 2.84165Z" stroke="black" stroke-width="1.25" stroke-miterlimit="10"/>
<path d="M9.9751 9.59167V14.3667" stroke="black" stroke-width="1.25" stroke-miterlimit="10"/>
<path d="M11.5666 8L9.97497 9.59167L8.3833 8" stroke="black" stroke-width="1.25" stroke-miterlimit="10"/>
<path d="M8.3833 15.9583L9.97497 14.3667L11.5666 15.9583" stroke="black" stroke-width="1.25" stroke-miterlimit="10"/>
<path d="M12.3585 11.9833H7.5835" stroke="black" stroke-width="1.25" stroke-miterlimit="10"/>
<path d="M13.9501 13.575L12.3584 11.975L13.9501 10.3917" stroke="black" stroke-width="1.25" stroke-miterlimit="10"/>
<path d="M6 10.3917L7.58333 11.975L6 13.575" stroke="black" stroke-width="1.25" stroke-miterlimit="10"/>
<path d="M9.97526 12.775C10.4125 12.775 10.7669 12.4205 10.7669 11.9833C10.7669 11.5461 10.4125 11.1917 9.97526 11.1917C9.53803 11.1917 9.18359 11.5461 9.18359 11.9833C9.18359 12.4205 9.53803 12.775 9.97526 12.775Z" stroke="black" stroke-width="1.25" stroke-miterlimit="10"/>
</svg>
