<svg width="20" height="20" viewBox="0 0 20 20" fill="none" xmlns="http://www.w3.org/2000/svg">
<g clip-path="url(#clip0_92_234)">
<path d="M2.04169 12.375C1.52509 11.6913 1.24698 10.857 1.25002 10C1.25223 8.94644 1.67173 7.93666 2.41671 7.19168C3.16169 6.4467 4.17147 6.0272 5.22502 6.025C5.22502 4.75859 5.7281 3.54405 6.62359 2.64857C7.51908 1.75308 8.73362 1.25 10 1.25C11.2664 1.25 12.481 1.75308 13.3765 2.64857C14.2719 3.54405 14.775 4.75859 14.775 6.025C14.7711 6.29046 14.746 6.55519 14.7 6.81667H15.1667C15.6376 6.81557 16.104 6.9075 16.5393 7.08719C16.9745 7.26688 17.37 7.53079 17.7029 7.86375C18.0359 8.19671 18.2998 8.59217 18.4795 9.02742C18.6592 9.46266 18.7511 9.92912 18.75 10.4C18.7494 11.2207 18.4703 12.0169 17.9584 12.6583" stroke="black" stroke-width="1.25" stroke-miterlimit="10"/>
<path d="M6.02513 13.975L4.43346 16.3667V14.775H2.8418L4.43346 12.3833V13.975H6.02513Z" stroke="black" stroke-width="1.25" stroke-miterlimit="10"/>
<path d="M9.59167 18.1833C10.4707 18.1833 11.1833 17.4707 11.1833 16.5917C11.1833 15.7126 10.4707 15 9.59167 15C8.71261 15 8 15.7126 8 16.5917C8 17.4707 8.71261 18.1833 9.59167 18.1833Z" stroke="black" stroke-width="1.25" stroke-miterlimit="10"/>
<path d="M9.79167 12.5833C10.2289 12.5833 10.5833 12.2289 10.5833 11.7917C10.5833 11.3544 10.2289 11 9.79167 11C9.35444 11 9 11.3544 9 11.7917C9 12.2289 9.35444 12.5833 9.79167 12.5833Z" stroke="black" stroke-width="1.25" stroke-miterlimit="10"/>
<path d="M14.7917 18.5833C15.2289 18.5833 15.5833 18.2289 15.5833 17.7917C15.5833 17.3544 15.2289 17 14.7917 17C14.3544 17 14 17.3544 14 17.7917C14 18.2289 14.3544 18.5833 14.7917 18.5833Z" stroke="black" stroke-width="1.25" stroke-miterlimit="10"/>
<path d="M14.5917 15.1833C15.4707 15.1833 16.1833 14.4707 16.1833 13.5917C16.1833 12.7126 15.4707 12 14.5917 12C13.7126 12 13 12.7126 13 13.5917C13 14.4707 13.7126 15.1833 14.5917 15.1833Z" stroke="black" stroke-width="1.25" stroke-miterlimit="10"/>
</g>
<defs>
<clipPath id="clip0_92_234">
<rect width="20" height="20" fill="white"/>
</clipPath>
</defs>
</svg>
