<svg id="Layer_1" data-name="Layer 1" xmlns="http://www.w3.org/2000/svg" viewBox="0 0 24 24" stroke-width="1.5" width="20" height="20" color="#000000"><defs><style>.cls-637b8b31f95e86b59c57a284-1{fill:none;stroke:currentColor;stroke-miterlimit:10;}</style></defs><path class="cls-637b8b31f95e86b59c57a284-1" d="M19.64,16.52A4.29,4.29,0,0,0,18.2,8.18h-.56a6,6,0,0,0,.09-.95,5.73,5.73,0,0,0-11.46,0,4.78,4.78,0,0,0-1.91,9.15"></path><path class="cls-637b8b31f95e86b59c57a284-1" d="M5.31,18.68c1.67,0,1.67-.95,3.34-.95s1.67.95,3.34.95,1.67-.95,3.34-.95,1.68.95,3.35.95"></path><path class="cls-637b8b31f95e86b59c57a284-1" d="M5.31,22.5c1.67,0,1.67-.95,3.34-.95s1.67.95,3.34.95,1.67-.95,3.34-.95,1.68.95,3.35.95"></path></svg>