<svg width="20" height="20" viewBox="0 0 20 20" fill="none" xmlns="http://www.w3.org/2000/svg">
<path d="M10.7769 12.1483H10.3742C10.4174 11.9213 10.4387 11.6905 10.4378 11.4593C10.4378 10.5418 10.0828 9.66195 9.45084 9.01321C8.81892 8.36446 7.96184 8 7.06816 8C6.17448 8 5.3174 8.36446 4.68547 9.01321C4.05354 9.66195 3.69853 10.5418 3.69853 11.4593C2.98283 11.4593 2.29645 11.7512 1.79038 12.2707C1.28431 12.7903 1 13.4949 1 14.2297C1 14.9644 1.28431 15.669 1.79038 16.1886C2.29645 16.7081 2.98283 17 3.69853 17H10.7627C11.3671 16.9661 11.9358 16.6957 12.352 16.2445C12.7681 15.7933 13 15.1955 13 14.5741C13 13.9528 12.7681 13.355 12.352 12.9038C11.9358 12.4526 11.3671 12.1822 10.7627 12.1483H10.7769Z" stroke="black" stroke-width="1.25" stroke-miterlimit="10"/>
<path d="M13.3256 15H13.6859C14.2996 15 14.8882 14.7452 15.3222 14.2916C15.7562 13.838 16 13.2228 16 12.5813C16 11.9398 15.7562 11.3246 15.3222 10.871C14.8882 10.4174 14.2996 10.1626 13.6859 10.1626H13.291C13.3296 9.93545 13.3504 9.70538 13.3533 9.47467C13.3579 8.67488 13.0967 7.89823 12.6145 7.27726C12.1322 6.65629 11.4587 6.22948 10.7089 6.06966C9.95912 5.90985 9.17951 6.02694 8.50312 6.40095C7.82672 6.77496 7.29546 7.38272 7 8.1205" stroke="black" stroke-width="1.25" stroke-miterlimit="10"/>
<path d="M16.3256 13H16.6859C17.2996 13 17.8882 12.7452 18.3222 12.2916C18.7562 11.838 19 11.2228 19 10.5813C19 9.93984 18.7562 9.32463 18.3222 8.87104C17.8882 8.41745 17.2996 8.16262 16.6859 8.16262H16.291C16.3296 7.93545 16.3504 7.70538 16.3533 7.47467C16.3579 6.67488 16.0967 5.89823 15.6145 5.27726C15.1322 4.65629 14.4587 4.22948 13.7089 4.06966C12.9591 3.90985 12.1795 4.02694 11.5031 4.40095C10.8267 4.77496 10.2955 5.38272 10 6.1205" stroke="black" stroke-width="1.25" stroke-miterlimit="10"/>
</svg>
