<svg width="20" height="20" viewBox="0 0 20 20" fill="none" xmlns="http://www.w3.org/2000/svg">
<g clip-path="url(#clip0_90_29)">
<path d="M4.4334 13.9167C3.4626 13.7255 2.59801 13.179 2.00865 12.3843C1.41929 11.5895 1.14754 10.6035 1.24651 9.61899C1.34548 8.6345 1.80806 7.72232 2.54382 7.06075C3.27959 6.39919 4.23563 6.03581 5.22507 6.04166C5.22507 4.77525 5.72815 3.56071 6.62363 2.66523C7.51912 1.76974 8.73366 1.26666 10.0001 1.26666C11.2665 1.26666 12.481 1.76974 13.3765 2.66523C14.272 3.56071 14.7751 4.77525 14.7751 6.04166C14.7711 6.30712 14.746 6.57185 14.7001 6.83333H15.1667C16.0786 6.83892 16.954 7.19194 17.6147 7.82047C18.2753 8.44901 18.6715 9.30576 18.7225 10.2162C18.7735 11.1267 18.4755 12.0223 17.8891 12.7207C17.3028 13.419 16.4723 13.8676 15.5667 13.975" stroke="black" stroke-width="1.25" stroke-miterlimit="10"/>
<path d="M13.1831 11.6083V14.7917" stroke="black" stroke-width="1.25" stroke-miterlimit="10"/>
<path d="M14 16V19.1833" stroke="black" stroke-width="1.25" stroke-miterlimit="10"/>
<path d="M10 14.7917V17.975" stroke="black" stroke-width="1.25" stroke-miterlimit="10"/>
<path d="M7.7002 10V14" stroke="black" stroke-width="1.25" stroke-miterlimit="10"/>
<path d="M6 11L9.4641 13" stroke="black" stroke-width="1.25" stroke-miterlimit="10"/>
<path d="M6 13L9.4641 11" stroke="black" stroke-width="1.25" stroke-miterlimit="10"/>
<path d="M5.7002 16V20" stroke="black" stroke-width="1.25" stroke-miterlimit="10"/>
<path d="M4 17L7.4641 19" stroke="black" stroke-width="1.25" stroke-miterlimit="10"/>
<path d="M4 19L7.4641 17" stroke="black" stroke-width="1.25" stroke-miterlimit="10"/>
</g>
<defs>
<clipPath id="clip0_90_29">
<rect width="20" height="20" fill="white"/>
</clipPath>
</defs>
</svg>
