<svg width="20" height="20" viewBox="0 0 20 20" fill="none" xmlns="http://www.w3.org/2000/svg">
<g clip-path="url(#clip0_92_128)">
<path d="M0.416504 12.4083H9.58317C9.97708 12.4083 10.3622 12.2915 10.6897 12.0727C11.0172 11.8538 11.2725 11.5428 11.4232 11.1788C11.574 10.8149 11.6134 10.4144 11.5366 10.0281C11.4597 9.64176 11.27 9.28687 10.9915 9.00833C10.713 8.72979 10.3581 8.54011 9.97173 8.46326C9.58538 8.38641 9.18492 8.42585 8.82099 8.5766C8.45706 8.72734 8.14601 8.98262 7.92716 9.31014C7.70831 9.63767 7.5915 10.0227 7.5915 10.4167" stroke="black" stroke-width="1.25" stroke-miterlimit="10"/>
<path d="M0.416504 15.6H7.5915C7.90631 15.6 8.21404 15.6934 8.47579 15.8683C8.73753 16.0431 8.94154 16.2917 9.06201 16.5826C9.18248 16.8734 9.214 17.1934 9.15259 17.5022C9.09117 17.8109 8.93958 18.0946 8.71698 18.3172C8.49438 18.5397 8.21078 18.6913 7.90202 18.7528C7.59327 18.8142 7.27324 18.7827 6.9824 18.6622C6.69156 18.5417 6.44298 18.3377 6.26808 18.076C6.09319 17.8142 5.99984 17.5065 5.99984 17.1917" stroke="black" stroke-width="1.25" stroke-miterlimit="10"/>
<path d="M18.7502 10.4167C18.7502 9.46632 18.3726 8.55488 17.7006 7.88288C17.0286 7.21087 16.1172 6.83334 15.1668 6.83334H14.6918C14.7396 6.55809 14.7647 6.27937 14.7668 6.00001C14.7668 5.37185 14.6431 4.74985 14.4027 4.16951C14.1623 3.58916 13.81 3.06185 13.3658 2.61768C12.9217 2.17351 12.3943 1.82117 11.814 1.58078C11.2337 1.3404 10.6117 1.21667 9.9835 1.21667C9.35534 1.21667 8.73334 1.3404 8.153 1.58078C7.57265 1.82117 7.04534 2.17351 6.60117 2.61768C6.157 3.06185 5.80466 3.58916 5.56427 4.16951C5.32389 4.74985 5.20016 5.37185 5.20016 6.00001C4.67566 6 4.15632 6.10359 3.67195 6.30481C3.18758 6.50603 2.74772 6.80093 2.37761 7.17259C2.00751 7.54424 1.71445 7.98533 1.51525 8.47053C1.31605 8.95574 1.21464 9.47551 1.21683 10" stroke="black" stroke-width="1.25" stroke-miterlimit="10"/>
<path d="M16.7002 11V15" stroke="black" stroke-width="1.25" stroke-miterlimit="10"/>
<path d="M15 12L18.4641 14" stroke="black" stroke-width="1.25" stroke-miterlimit="10"/>
<path d="M15 14L18.4641 12" stroke="black" stroke-width="1.25" stroke-miterlimit="10"/>
<path d="M13.7002 15V19" stroke="black" stroke-width="1.25" stroke-miterlimit="10"/>
<path d="M12 16L15.4641 18" stroke="black" stroke-width="1.25" stroke-miterlimit="10"/>
<path d="M12 18L15.4641 16" stroke="black" stroke-width="1.25" stroke-miterlimit="10"/>
</g>
<defs>
<clipPath id="clip0_92_128">
<rect width="20" height="20" fill="white"/>
</clipPath>
</defs>
</svg>
